<svg width="180" height="180" viewBox="0 0 180 180" fill="none" xmlns="http://www.w3.org/2000/svg">
<rect width="180" height="180" fill="#0B1F39"/>
<path d="M71.0101 66.9694C70.2002 67.2393 69.6603 67.7792 69.3904 68.5891C69.1204 69.3989 68.9405 70.6587 68.9405 72.4583V107.552C68.9405 109.351 69.1204 110.611 69.3904 111.421C69.6603 112.231 70.2002 112.771 71.0101 113.041C71.8199 113.311 72.9897 113.49 74.6994 113.58V115.02C72.5398 114.84 69.5704 114.84 65.7011 114.84C61.6519 114.84 58.5924 114.93 56.6128 115.02V113.58C58.3225 113.49 59.5823 113.311 60.3021 113.041C61.112 112.771 61.6519 112.231 61.9218 111.421C62.1918 110.611 62.3717 109.351 62.3717 107.552V69.6689L45.275 115.47H44.1952L26.3786 69.4889V106.832C26.3786 108.631 26.5586 110.071 26.8285 110.971C27.0985 111.871 27.7283 112.501 28.6282 112.951C29.528 113.311 30.8777 113.58 32.7674 113.67V115.11C31.0577 114.93 28.6282 114.93 25.5687 114.93C22.7793 114.93 20.5297 115.02 19 115.11V113.67C20.6197 113.58 21.8795 113.311 22.6893 112.951C23.4991 112.591 24.039 111.871 24.309 110.971C24.5789 110.071 24.7589 108.721 24.7589 106.922V72.4583C24.7589 70.6587 24.5789 69.3989 24.309 68.5891C24.039 67.7792 23.4991 67.2393 22.6893 66.9694C21.9694 66.6994 20.7097 66.5195 19 66.4295V64.9897C20.5297 65.1697 22.7793 65.1697 25.5687 65.1697C27.9983 65.1697 30.0679 65.0797 31.5976 64.9897L47.1646 105.932L62.3717 65.1697H65.7011C69.4804 65.1697 72.5398 65.0797 74.6994 64.9897V66.4295C72.9897 66.5195 71.7299 66.6994 71.0101 66.9694Z" fill="#F1F1F5"/>
<path d="M107.723 65.1698C109.523 65.9796 111.502 67.0594 113.572 68.5891C114.202 69.039 114.652 69.309 115.012 69.309C115.912 69.309 116.541 67.8693 116.811 64.9898H118.431C118.251 68.0492 118.161 73.4482 118.161 81.2767H116.541C116.092 78.7572 115.642 76.6876 115.192 75.0679C114.742 73.4482 114.022 72.0085 113.032 70.7487C111.682 69.039 109.883 67.6893 107.723 66.6995C105.564 65.7097 103.224 65.1698 100.794 65.1698C97.6451 65.1698 94.9456 66.1596 92.606 68.2292C90.2665 70.2988 88.4668 73.1783 87.1171 76.8675C85.8573 80.6468 85.2274 84.966 85.2274 90.005C85.2274 98.4634 86.5772 104.672 89.2766 108.631C91.9761 112.591 96.2053 114.57 102.054 114.57C104.844 114.57 107.363 113.85 109.433 112.411C110.243 111.871 110.873 111.331 111.053 110.791C111.322 110.251 111.412 109.531 111.412 108.542V101.793C111.412 99.8132 111.232 98.3734 110.873 97.4736C110.513 96.5738 109.793 95.9439 108.893 95.674C107.993 95.314 106.373 95.1341 104.304 95.0441V93.6044C106.733 93.7843 110.063 93.7843 114.292 93.7843C117.531 93.7843 119.961 93.6943 121.67 93.6044V95.0441C120.591 95.1341 119.781 95.314 119.331 95.584C118.791 95.8539 118.521 96.3938 118.341 97.2037C118.161 98.0135 118.071 99.2733 118.071 101.073V115.11H116.631C116.541 114.21 116.361 113.221 116.092 112.411C115.732 111.511 115.282 111.061 114.742 111.061C114.472 111.061 114.202 111.151 113.932 111.241C113.662 111.331 113.122 111.691 112.402 112.231C110.783 113.491 109.073 114.48 107.273 115.11C105.474 115.74 103.494 116.1 101.334 116.1C96.4753 116.1 92.3361 115.11 88.8267 113.131C85.3174 111.151 82.7079 108.272 80.9082 104.492C79.1086 100.713 78.1188 96.2139 78.1188 90.9949C78.1188 85.5959 79.1086 80.9168 81.0882 76.7776C83.0678 72.7283 85.7673 69.5789 89.1867 67.3294C92.516 65.0798 96.4753 64 100.884 64C103.674 64 105.923 64.3599 107.723 65.1698Z" fill="#F1F1F5"/>
<path d="M142.187 66.4295C140.477 66.5195 139.217 66.6994 138.497 66.9694C137.687 67.2393 137.147 67.7792 136.878 68.5891C136.608 69.3989 136.428 70.6587 136.428 72.4583V107.552C136.428 109.351 136.608 110.611 136.878 111.421C137.147 112.231 137.687 112.771 138.497 113.041C139.307 113.311 140.477 113.401 142.187 113.401H147.316C150.195 113.401 152.445 112.951 153.974 112.141C155.504 111.331 156.584 109.981 157.304 108.182C158.023 106.382 158.563 103.682 158.833 100.173H160.453C160.273 101.613 160.273 103.592 160.273 105.932C160.273 108.631 160.453 111.601 160.813 115.02C157.574 114.84 152.175 114.84 144.616 114.84C135.528 114.84 128.689 114.93 124.1 115.02V113.58C125.81 113.49 127.069 113.311 127.789 113.041C128.599 112.771 129.139 112.231 129.409 111.421C129.679 110.611 129.859 109.351 129.859 107.552V72.4583C129.859 70.6587 129.679 69.3989 129.409 68.5891C129.139 67.7792 128.599 67.2393 127.789 66.9694C126.979 66.6994 125.81 66.5195 124.1 66.4295V64.9897C126.08 65.1697 129.139 65.1697 133.188 65.1697C136.968 65.1697 139.937 65.0797 142.187 64.9897V66.4295Z" fill="#F1F1F5"/>
</svg>
