<svg width="36" height="36" viewBox="0 0 36 36" fill="none" xmlns="http://www.w3.org/2000/svg">
<path fill-rule="evenodd" clip-rule="evenodd" d="M36 36H28.5923V23.4C28.5923 19.9385 27.2769 18 24.5769 18C21.6 18 20.0769 20.0077 20.0769 23.4V36H12.8769V11.9769H20.0077V15.2308C20.0077 15.2308 22.1538 11.2846 27.2769 11.2846C32.4 11.2846 36 14.4 36 20.8385V36ZM4.36154 8.86154C1.93846 8.86154 0 6.85385 0 4.43077C0 2.00769 1.93846 0 4.36154 0C6.78462 0 8.72308 2.00769 8.72308 4.43077C8.72308 6.85385 6.85385 8.86154 4.36154 8.86154ZM0.692308 36H8.1V11.9769H0.692308V36Z" fill="#0B1F39"/>
</svg>
