<svg width="319" height="58" viewBox="0 0 319 58" fill="none" xmlns="http://www.w3.org/2000/svg">
<path d="M316.7 35.69V24.49L312.96 32.01H311.84L308.14 24.49V35.69H306.42V22.17H308.86L312.44 29.52L316.05 22.17H318.41V35.69H316.69H316.7Z" fill="#F1F1F5"/>
<path d="M296.13 35.69L292.68 30.17H290.33V35.69H288.52V22.17H292.72C294.4 22.17 295.6 22.48 296.33 23.1C297.06 23.72 297.42 24.68 297.42 25.97C297.42 27.08 297.2 27.95 296.75 28.6C296.3 29.25 295.58 29.67 294.58 29.89L298.24 35.69H296.12H296.13ZM295.56 26.11C295.56 25.22 295.33 24.6 294.88 24.27C294.43 23.94 293.7 23.77 292.7 23.77H290.33V28.57H292.59C293.34 28.57 293.94 28.49 294.37 28.33C294.8 28.17 295.11 27.92 295.29 27.57C295.47 27.22 295.56 26.74 295.56 26.11Z" fill="#F1F1F5"/>
<path d="M279.93 35.69H274.4V34.13H276.27V23.71H274.4V22.18H279.93V23.71H278.06V34.13H279.93V35.69Z" fill="#F1F1F5"/>
<path d="M260.35 23.8V27.75H265.77V29.39H260.35V35.69H258.54V22.17H266.72V23.8H260.34H260.35Z" fill="#F1F1F5"/>
<path d="M235.81 35.69H233.65L231.1 24.87L228.54 35.69H226.42L223.23 22.17H225.03L227.55 33.09L230.11 22.17H232.15L234.75 33.17L237.31 22.17H239.08L235.82 35.69H235.81Z" fill="#F1F1F5"/>
<path d="M205.26 35.69L209.88 22.17H212.22L216.84 35.69H214.94L213.77 32.17H208.26L207.11 35.69H205.26ZM208.8 30.53H213.19L210.99 23.95L208.79 30.53H208.8Z" fill="#F1F1F5"/>
<path d="M190.58 35.69V22.17H192.39V34.04H198.5V35.68H190.58V35.69Z" fill="#F1F1F5"/>
<path d="M173.8 1H172.3V56.9H173.8V1Z" fill="#F1F1F5"/>
<path d="M136.9 2.69998C135 2.79998 133.6 2.99998 132.8 3.29998C131.9 3.59998 131.3 4.19998 131 5.09998C130.7 5.99998 130.5 7.39997 130.5 9.39997V48.4C130.5 50.4 130.7 51.8 131 52.7C131.3 53.6 131.9 54.2 132.8 54.5C133.7 54.8 135 54.9 136.9 54.9H142.6C145.8 54.9 148.3 54.4 150 53.5C151.7 52.6 152.9 51.1 153.7 49.1C154.5 47.1 155.1 44.1 155.4 40.2H157.2C157 41.8 157 44 157 46.6C157 49.6 157.2 52.9 157.6 56.7C154 56.5 148 56.5 139.6 56.5C129.5 56.5 121.9 56.6 116.8 56.7V55.1C118.7 55 120.1 54.8 120.9 54.5C121.8 54.2 122.4 53.6 122.7 52.7C123 51.8 123.2 50.4 123.2 48.4V9.39997C123.2 7.39997 123 5.99998 122.7 5.09998C122.4 4.19998 121.8 3.59998 120.9 3.29998C120 2.99998 118.7 2.79998 116.8 2.69998V1.09998C119 1.29998 122.4 1.29998 126.9 1.29998C131.1 1.29998 134.4 1.19998 136.9 1.09998V2.69998Z" fill="#F1F1F5"/>
<path d="M98.6 1.3C100.6 2.2 102.8 3.4 105.1 5.1C105.8 5.6 106.3 5.9 106.7 5.9C107.7 5.9 108.4 4.3 108.7 1.1H110.5C110.3 4.5 110.2 10.5 110.2 19.2H108.4C107.9 16.4 107.4 14.1 106.9 12.3C106.4 10.5 105.6 8.9 104.5 7.5C103 5.6 101 4.1 98.6 3C96.2 1.9 93.6 1.3 90.9 1.3C87.4 1.3 84.4 2.4 81.8 4.7C79.2 7 77.2 10.2 75.7 14.3C74.3 18.5 73.6 23.3 73.6 28.9C73.6 38.3 75.1 45.2 78.1 49.6C81.1 54 85.8 56.2 92.3 56.2C95.4 56.2 98.2 55.4 100.5 53.8C101.4 53.2 102.1 52.6 102.3 52C102.6 51.4 102.7 50.6 102.7 49.5V42C102.7 39.8 102.5 38.2 102.1 37.2C101.7 36.2 100.9 35.5 99.9 35.2C98.9 34.8 97.1 34.6 94.8 34.5V32.9C97.5 33.1 101.2 33.1 105.9 33.1C109.5 33.1 112.2 33 114.1 32.9V34.5C112.9 34.6 112 34.8 111.5 35.1C110.9 35.4 110.6 36 110.4 36.9C110.2 37.8 110.1 39.2 110.1 41.2V56.8H108.5C108.4 55.8 108.2 54.7 107.9 53.8C107.5 52.8 107 52.3 106.4 52.3C106.1 52.3 105.8 52.4 105.5 52.5C105.2 52.6 104.6 53 103.8 53.6C102 55 100.1 56.1 98.1 56.8C96.1 57.5 93.9 57.9 91.5 57.9C86.1 57.9 81.5 56.8 77.6 54.6C73.7 52.4 70.8 49.2 68.8 45C66.8 40.8 65.7 35.8 65.7 30C65.7 24.2 66.8 18.8 69 14.2C71.2 9.7 74.2 6.2 78 3.7C81.7 1.2 86.1 0 91 0C94.1 0 96.6 0.4 98.6 1.3Z" fill="#F1F1F5"/>
<path d="M57.8 3.29998C56.9 3.59998 56.3 4.19998 56 5.09998C55.7 5.99998 55.5 7.39997 55.5 9.39997V48.4C55.5 50.4 55.7 51.8 56 52.7C56.3 53.6 56.9 54.2 57.8 54.5C58.7 54.8 60 55 61.9 55.1V56.7C59.5 56.5 56.2 56.5 51.9 56.5C47.6 56.5 44 56.6 41.8 56.7V55.1C43.7 55 45.1 54.8 45.9 54.5C46.8 54.2 47.4 53.6 47.7 52.7C48 51.8 48.2 50.4 48.2 48.4V6.29998L29.2 57.2H28L8.2 6.09998V47.6C8.2 49.6 8.4 51.2 8.7 52.2C9 53.2 9.7 53.9 10.7 54.4C11.7 54.8 13.2 55.1 15.3 55.2V56.8C13.4 56.6 10.7 56.6 7.3 56.6C4.2 56.6 1.7 56.7 0 56.8V55.2C1.8 55.1 3.2 54.8 4.1 54.4C5 54 5.6 53.2 5.9 52.2C6.2 51.2 6.4 49.7 6.4 47.7V9.39997C6.4 7.39997 6.2 5.99998 5.9 5.09998C5.6 4.19998 5 3.59998 4.1 3.29998C3.3 2.99998 1.9 2.79998 0 2.69998V1.09998C1.7 1.29998 4.2 1.29998 7.3 1.29998C10 1.29998 12.3 1.19998 14 1.09998L31.3 46.6L48.2 1.29998H51.9C56.1 1.29998 59.5 1.19998 61.9 1.09998V2.69998C60 2.79998 58.6 2.99998 57.8 3.29998Z" fill="#F1F1F5"/>
</svg>
