<svg width="331" height="58" viewBox="0 0 331 58" fill="none" xmlns="http://www.w3.org/2000/svg">
<g clip-path="url(#clip0_352_82)">
<path d="M330.63 31.99C330.63 33.25 330.21 34.23 329.38 34.93C328.55 35.63 327.34 35.97 325.74 35.97C324.52 35.97 323.51 35.76 322.69 35.33C321.87 34.9 321.21 34.23 320.7 33.33L322.16 32.35C322.92 33.7 324.1 34.37 325.7 34.37C326.66 34.37 327.41 34.17 327.96 33.77C328.51 33.37 328.79 32.82 328.79 32.12C328.79 31.72 328.7 31.39 328.53 31.11C328.36 30.83 328.12 30.61 327.84 30.42C327.56 30.23 327.22 30.08 326.85 29.97C326.48 29.86 326.09 29.75 325.69 29.64C325.03 29.48 324.41 29.31 323.83 29.14C323.25 28.97 322.76 28.74 322.34 28.47C321.92 28.2 321.59 27.85 321.35 27.42C321.11 26.99 320.99 26.44 320.99 25.77C320.99 24.57 321.38 23.62 322.15 22.92C322.92 22.22 324.08 21.87 325.61 21.87C326.83 21.87 327.81 22.1 328.54 22.55C329.27 23 329.85 23.58 330.27 24.29L328.83 25.31C328.48 24.72 328.05 24.27 327.55 23.95C327.05 23.63 326.4 23.47 325.61 23.47C324.73 23.47 324.05 23.66 323.56 24.05C323.07 24.44 322.83 24.96 322.83 25.61C322.83 25.96 322.9 26.24 323.05 26.48C323.2 26.72 323.41 26.91 323.68 27.07C323.95 27.23 324.29 27.37 324.7 27.48C325.11 27.59 325.57 27.72 326.09 27.85C326.7 28.01 327.28 28.18 327.84 28.36C328.4 28.54 328.88 28.78 329.29 29.07C329.7 29.36 330.03 29.74 330.27 30.2C330.51 30.66 330.63 31.25 330.63 31.97V31.99Z" fill="#F1F1F5"/>
<path d="M312.79 28.93C312.79 31.36 312.33 33.14 311.42 34.27C310.51 35.4 309.13 35.97 307.29 35.97C305.45 35.97 304.05 35.39 303.14 34.24C302.23 33.09 301.79 31.32 301.79 28.93C301.79 26.54 302.24 24.79 303.13 23.63C304.02 22.47 305.41 21.89 307.29 21.89C309.17 21.89 310.53 22.46 311.43 23.6C312.33 24.74 312.79 26.52 312.79 28.93ZM310.89 28.93C310.89 27.06 310.61 25.69 310.05 24.81C309.49 23.93 308.57 23.49 307.29 23.49C306.01 23.49 305.09 23.93 304.53 24.81C303.97 25.69 303.69 27.06 303.69 28.93C303.69 30.8 303.98 32.19 304.54 33.06C305.1 33.93 306.03 34.37 307.29 34.37C308.55 34.37 309.46 33.94 310.03 33.07C310.6 32.2 310.89 30.82 310.89 28.93Z" fill="#F1F1F5"/>
<path d="M293.66 28.93C293.66 30.58 293.45 31.9 293.02 32.88C292.59 33.86 291.94 34.57 291.05 35.02C290.16 35.47 288.91 35.69 287.3 35.69H283.86V22.17H287.26C288.84 22.17 290.08 22.4 290.99 22.85C291.9 23.3 292.57 24.02 293.01 25C293.45 25.98 293.66 27.29 293.66 28.93ZM291.75 28.91C291.75 27.62 291.61 26.61 291.32 25.88C291.03 25.15 290.56 24.62 289.9 24.29C289.24 23.96 288.32 23.8 287.15 23.8H285.65V34.04H287.15C288.33 34.04 289.25 33.88 289.9 33.55C290.55 33.22 291.02 32.69 291.31 31.97C291.6 31.25 291.75 30.22 291.75 28.91Z" fill="#F1F1F5"/>
<path d="M264.29 35.69L268.91 22.17H271.25L275.87 35.69H273.97L272.8 32.17H267.29L266.14 35.69H264.29ZM267.84 30.53H272.23L270.03 23.95L267.83 30.53H267.84Z" fill="#F1F1F5"/>
<path d="M255.08 25.42C254.76 24.83 254.34 24.37 253.81 24.01C253.28 23.65 252.57 23.48 251.68 23.48C250.32 23.48 249.32 23.93 248.69 24.83C248.06 25.73 247.74 27.11 247.74 28.96C247.74 30.81 248.08 32.23 248.77 33.08C249.46 33.93 250.47 34.36 251.82 34.36C252.34 34.36 252.82 34.3 253.27 34.18C253.72 34.06 254.2 33.89 254.72 33.66V30.46H251.44V28.83H256.53V34.65C255.79 35.06 255.06 35.38 254.34 35.62C253.62 35.86 252.78 35.97 251.83 35.97C249.8 35.97 248.29 35.39 247.32 34.22C246.35 33.05 245.86 31.3 245.86 28.95C245.86 26.6 246.35 24.79 247.33 23.63C248.31 22.47 249.77 21.89 251.72 21.89C252.83 21.89 253.78 22.09 254.59 22.48C255.4 22.87 256.05 23.52 256.57 24.43L255.11 25.43L255.08 25.42Z" fill="#F1F1F5"/>
<path d="M237.6 28.93C237.6 31.36 237.14 33.14 236.23 34.27C235.32 35.4 233.94 35.97 232.1 35.97C230.26 35.97 228.86 35.39 227.95 34.24C227.04 33.09 226.6 31.32 226.6 28.93C226.6 26.54 227.05 24.79 227.94 23.63C228.83 22.47 230.22 21.89 232.1 21.89C233.98 21.89 235.34 22.46 236.24 23.6C237.14 24.74 237.6 26.52 237.6 28.93ZM235.71 28.93C235.71 27.06 235.43 25.69 234.87 24.81C234.31 23.93 233.39 23.49 232.11 23.49C230.83 23.49 229.91 23.93 229.35 24.81C228.79 25.69 228.51 27.06 228.51 28.93C228.51 30.8 228.8 32.19 229.36 33.06C229.92 33.93 230.85 34.37 232.11 34.37C233.37 34.37 234.28 33.94 234.85 33.07C235.42 32.2 235.71 30.82 235.71 28.93Z" fill="#F1F1F5"/>
<path d="M218.5 31.72C218.5 33.11 218.06 34.11 217.17 34.74C216.28 35.37 215.02 35.68 213.38 35.68H208.98V22.16H212.98C214.63 22.16 215.83 22.4 216.56 22.87C217.29 23.34 217.66 24.13 217.66 25.24C217.66 26.14 217.46 26.84 217.06 27.31C216.66 27.78 216.16 28.11 215.56 28.3C216.45 28.42 217.16 28.75 217.7 29.29C218.24 29.83 218.5 30.63 218.5 31.72ZM215.81 25.65C215.81 24.96 215.6 24.47 215.17 24.19C214.74 23.91 213.98 23.77 212.88 23.77H210.8V27.79H212.79C213.87 27.79 214.65 27.62 215.11 27.27C215.57 26.92 215.81 26.38 215.81 25.65ZM216.63 31.64C216.63 31.08 216.52 30.64 216.3 30.32C216.08 30 215.75 29.76 215.29 29.61C214.83 29.46 214.1 29.39 213.08 29.39H210.79V34.05H212.63C213.78 34.05 214.61 33.97 215.12 33.82C215.63 33.67 216.02 33.42 216.26 33.07C216.5 32.72 216.63 32.25 216.63 31.65V31.64Z" fill="#F1F1F5"/>
<path d="M189.3 35.69L193.92 22.17H196.26L200.88 35.69H198.98L197.81 32.17H192.3L191.15 35.69H189.3ZM192.85 30.53H197.24L195.04 23.95L192.84 30.53H192.85Z" fill="#F1F1F5"/>
<path d="M173.8 1H172.3V56.9H173.8V1Z" fill="#F1F1F5"/>
<path d="M136.9 2.69998C135 2.79998 133.6 2.99998 132.8 3.29998C131.9 3.59998 131.3 4.19998 131 5.09998C130.7 5.99998 130.5 7.39997 130.5 9.39997V48.4C130.5 50.4 130.7 51.8 131 52.7C131.3 53.6 131.9 54.2 132.8 54.5C133.7 54.8 135 54.9 136.9 54.9H142.6C145.8 54.9 148.3 54.4 150 53.5C151.7 52.6 152.9 51.1 153.7 49.1C154.5 47.1 155.1 44.1 155.4 40.2H157.2C157 41.8 157 44 157 46.6C157 49.6 157.2 52.9 157.6 56.7C154 56.5 148 56.5 139.6 56.5C129.5 56.5 121.9 56.6 116.8 56.7V55.1C118.7 55 120.1 54.8 120.9 54.5C121.8 54.2 122.4 53.6 122.7 52.7C123 51.8 123.2 50.4 123.2 48.4V9.39997C123.2 7.39997 123 5.99998 122.7 5.09998C122.4 4.19998 121.8 3.59998 120.9 3.29998C120 2.99998 118.7 2.79998 116.8 2.69998V1.09998C119 1.29998 122.4 1.29998 126.9 1.29998C131.1 1.29998 134.4 1.19998 136.9 1.09998V2.69998Z" fill="#F1F1F5"/>
<path d="M98.6 1.3C100.6 2.2 102.8 3.4 105.1 5.1C105.8 5.6 106.3 5.9 106.7 5.9C107.7 5.9 108.4 4.3 108.7 1.1H110.5C110.3 4.5 110.2 10.5 110.2 19.2H108.4C107.9 16.4 107.4 14.1 106.9 12.3C106.4 10.5 105.6 8.9 104.5 7.5C103 5.6 101 4.1 98.6 3C96.2 1.9 93.6 1.3 90.9 1.3C87.4 1.3 84.4 2.4 81.8 4.7C79.2 7 77.2 10.2 75.7 14.3C74.3 18.5 73.6 23.3 73.6 28.9C73.6 38.3 75.1 45.2 78.1 49.6C81.1 54 85.8 56.2 92.3 56.2C95.4 56.2 98.2 55.4 100.5 53.8C101.4 53.2 102.1 52.6 102.3 52C102.6 51.4 102.7 50.6 102.7 49.5V42C102.7 39.8 102.5 38.2 102.1 37.2C101.7 36.2 100.9 35.5 99.9 35.2C98.9 34.8 97.1 34.6 94.8 34.5V32.9C97.5 33.1 101.2 33.1 105.9 33.1C109.5 33.1 112.2 33 114.1 32.9V34.5C112.9 34.6 112 34.8 111.5 35.1C110.9 35.4 110.6 36 110.4 36.9C110.2 37.8 110.1 39.2 110.1 41.2V56.8H108.5C108.4 55.8 108.2 54.7 107.9 53.8C107.5 52.8 107 52.3 106.4 52.3C106.1 52.3 105.8 52.4 105.5 52.5C105.2 52.6 104.6 53 103.8 53.6C102 55 100.1 56.1 98.1 56.8C96.1 57.5 93.9 57.9 91.5 57.9C86.1 57.9 81.5 56.8 77.6 54.6C73.7 52.4 70.8 49.2 68.8 45C66.8 40.8 65.7 35.8 65.7 30C65.7 24.2 66.8 18.8 69 14.2C71.2 9.7 74.2 6.2 78 3.7C81.7 1.2 86.1 0 91 0C94.1 0 96.6 0.4 98.6 1.3Z" fill="#F1F1F5"/>
<path d="M57.8 3.29998C56.9 3.59998 56.3 4.19998 56 5.09998C55.7 5.99998 55.5 7.39997 55.5 9.39997V48.4C55.5 50.4 55.7 51.8 56 52.7C56.3 53.6 56.9 54.2 57.8 54.5C58.7 54.8 60 55 61.9 55.1V56.7C59.5 56.5 56.2 56.5 51.9 56.5C47.6 56.5 44 56.6 41.8 56.7V55.1C43.7 55 45.1 54.8 45.9 54.5C46.8 54.2 47.4 53.6 47.7 52.7C48 51.8 48.2 50.4 48.2 48.4V6.29998L29.2 57.2H28L8.2 6.09998V47.6C8.2 49.6 8.4 51.2 8.7 52.2C9 53.2 9.7 53.9 10.7 54.4C11.7 54.8 13.2 55.1 15.3 55.2V56.8C13.4 56.6 10.7 56.6 7.3 56.6C4.2 56.6 1.7 56.7 0 56.8V55.2C1.8 55.1 3.2 54.8 4.1 54.4C5 54 5.6 53.2 5.9 52.2C6.2 51.2 6.4 49.7 6.4 47.7V9.39997C6.4 7.39997 6.2 5.99998 5.9 5.09998C5.6 4.19998 5 3.59998 4.1 3.29998C3.3 2.99998 1.9 2.79998 0 2.69998V1.09998C1.7 1.29998 4.2 1.29998 7.3 1.29998C10 1.29998 12.3 1.19998 14 1.09998L31.3 46.6L48.2 1.29998H51.9C56.1 1.29998 59.5 1.19998 61.9 1.09998V2.69998C60 2.79998 58.6 2.99998 57.8 3.29998Z" fill="#F1F1F5"/>
</g>
<defs>
<clipPath id="clip0_352_83">
<rect width="330.63" height="57.9" fill="white"/>
</clipPath>
</defs>
</svg>
