<svg width="267" height="58" viewBox="0 0 267 58" fill="none" xmlns="http://www.w3.org/2000/svg">
<path d="M190.1 33.3V24.5H191.3V32.2H195.3V33.3H190.1Z" fill="#F1F1F5"/>
<path d="M200.1 33.3L203.1 24.5H204.6L207.6 33.3H206.4L205.6 31H202L201.3 33.3H200.1ZM202.4 29.9H205.3L203.9 25.6L202.4 29.9Z" fill="#F1F1F5"/>
<path d="M219.8 33.3H218.4L216.7 26.3L215 33.3H213.6L211.5 24.5H212.7L214.3 31.6L216 24.5H217.3L219 31.6L220.7 24.5H221.8L219.8 33.3Z" fill="#F1F1F5"/>
<path d="M230.7 29.9V33.3H229.5V30L226.7 24.6H228L230.1 28.9L232.2 24.6H233.5L230.7 29.9Z" fill="#F1F1F5"/>
<path d="M238.7 33.3V24.5H244.1V25.6H239.9V28.2H243.5V29.3H239.9V32.3H244.1V33.4H238.7V33.3Z" fill="#F1F1F5"/>
<path d="M254.5 33.3L252.3 29.7H250.8V33.3H249.6V24.5H252.3C253.4 24.5 254.2 24.7 254.6 25.1C255.1 25.5 255.3 26.1 255.3 27C255.3 27.7 255.2 28.3 254.9 28.7C254.6 29.1 254.1 29.4 253.5 29.5L255.9 33.3H254.5ZM254.1 27.1C254.1 26.5 254 26.1 253.7 25.9C253.4 25.7 252.9 25.6 252.3 25.6H250.8V28.7H252.3C252.8 28.7 253.2 28.6 253.5 28.5C253.8 28.4 254 28.2 254.1 28C254.1 27.8 254.1 27.5 254.1 27.1Z" fill="#F1F1F5"/>
<path d="M266.9 30.9C266.9 31.7 266.6 32.4 266.1 32.8C265.6 33.3 264.8 33.5 263.7 33.5C262.9 33.5 262.2 33.4 261.7 33.1C261.2 32.8 260.7 32.4 260.4 31.8L261.4 31.2C261.9 32.1 262.7 32.5 263.7 32.5C264.3 32.5 264.8 32.4 265.2 32.1C265.6 31.8 265.7 31.5 265.7 31C265.7 30.7 265.6 30.5 265.5 30.3C265.4 30.1 265.2 30 265 29.9C264.8 29.8 264.6 29.7 264.4 29.6C264.2 29.5 263.9 29.5 263.6 29.4C263.2 29.3 262.8 29.2 262.4 29.1C262 29 261.7 28.8 261.4 28.7C261.1 28.5 260.9 28.3 260.8 28C260.7 27.7 260.6 27.4 260.6 26.9C260.6 26.1 260.9 25.5 261.4 25C261.9 24.5 262.7 24.3 263.6 24.3C264.4 24.3 265 24.4 265.5 24.7C266 25 266.3 25.4 266.6 25.8L265.7 26.5C265.5 26.1 265.2 25.8 264.9 25.6C264.6 25.4 264.2 25.3 263.6 25.3C263 25.3 262.6 25.4 262.3 25.7C262 26 261.8 26.3 261.8 26.7C261.8 26.9 261.8 27.1 261.9 27.3C262 27.5 262.1 27.6 262.3 27.7C262.5 27.8 262.7 27.9 263 28C263.3 28.1 263.6 28.2 263.9 28.2C264.3 28.3 264.7 28.4 265 28.5C265.4 28.6 265.7 28.8 265.9 29C266.1 29.2 266.4 29.4 266.5 29.7C266.9 30 266.9 30.4 266.9 30.9Z" fill="##F1F1F5"/>
<path d="M173.8 1H172.3V56.9H173.8V1Z" fill="#F1F1F5"/>
<path d="M57.8 3.29998C56.9 3.59998 56.3 4.19998 56 5.09998C55.7 5.99998 55.5 7.39997 55.5 9.39997V48.4C55.5 50.4 55.7 51.8 56 52.7C56.3 53.6 56.9 54.2 57.8 54.5C58.7 54.8 60 55 61.9 55.1V56.7C59.5 56.5 56.2 56.5 51.9 56.5C47.4 56.5 44 56.6 41.8 56.7V55.1C43.7 55 45.1 54.8 45.9 54.5C46.8 54.2 47.4 53.6 47.7 52.7C48 51.8 48.2 50.4 48.2 48.4V6.29998L29.2 57.2H28L8.2 6.09998V47.6C8.2 49.6 8.4 51.2 8.7 52.2C9 53.2 9.7 53.9 10.7 54.4C11.7 54.8 13.2 55.1 15.3 55.2V56.8C13.4 56.6 10.7 56.6 7.3 56.6C4.2 56.6 1.7 56.7 0 56.8V55.2C1.8 55.1 3.2 54.8 4.1 54.4C5 54 5.6 53.2 5.9 52.2C6.2 51.2 6.4 49.7 6.4 47.7V9.39997C6.4 7.39997 6.2 5.99998 5.9 5.09998C5.6 4.19998 5 3.59998 4.1 3.29998C3.3 2.99998 1.9 2.79998 0 2.69998V1.09998C1.7 1.29998 4.2 1.29998 7.3 1.29998C10 1.29998 12.3 1.19998 14 1.09998L31.3 46.6L48.2 1.29998H51.9C56.1 1.29998 59.5 1.19998 61.9 1.09998V2.69998C60 2.79998 58.6 2.99998 57.8 3.29998Z" fill="#F1F1F5"/>
<path d="M98.6 1.3C100.6 2.2 102.8 3.4 105.1 5.1C105.8 5.6 106.3 5.9 106.7 5.9C107.7 5.9 108.4 4.3 108.7 1.1H110.5C110.3 4.5 110.2 10.5 110.2 19.2H108.4C107.9 16.4 107.4 14.1 106.9 12.3C106.4 10.5 105.6 8.9 104.5 7.5C103 5.6 101 4.1 98.6 3C96.2 1.9 93.6 1.3 90.9 1.3C87.4 1.3 84.4 2.4 81.8 4.7C79.2 7 77.2 10.2 75.7 14.3C74.3 18.5 73.6 23.3 73.6 28.9C73.6 38.3 75.1 45.2 78.1 49.6C81.1 54 85.8 56.2 92.3 56.2C95.4 56.2 98.2 55.4 100.5 53.8C101.4 53.2 102.1 52.6 102.3 52C102.6 51.4 102.7 50.6 102.7 49.5V42C102.7 39.8 102.5 38.2 102.1 37.2C101.7 36.2 100.9 35.5 99.9 35.2C98.9 34.8 97.1 34.6 94.8 34.5V32.9C97.5 33.1 101.2 33.1 105.9 33.1C109.5 33.1 112.2 33 114.1 32.9V34.5C112.9 34.6 112 34.8 111.5 35.1C110.9 35.4 110.6 36 110.4 36.9C110.2 37.8 110.1 39.2 110.1 41.2V56.8H108.5C108.4 55.8 108.2 54.7 107.9 53.8C107.5 52.8 107 52.3 106.4 52.3C106.1 52.3 105.8 52.4 105.5 52.5C105.2 52.6 104.6 53 103.8 53.6C102 55 100.1 56.1 98.1 56.8C96.1 57.5 93.9 57.9 91.5 57.9C86.1 57.9 81.5 56.8 77.6 54.6C73.7 52.4 70.8 49.2 68.8 45C66.8 40.8 65.7 35.8 65.7 30C65.7 24 66.8 18.8 69 14.2C71.2 9.7 74.2 6.2 78 3.7C81.7 1.2 86.1 0 91 0C94.1 0 96.6 0.4 98.6 1.3Z" fill="#F1F1F5"/>
<path d="M136.9 2.69998C135 2.79998 133.6 2.99998 132.8 3.29998C131.9 3.59998 131.3 4.19998 131 5.09998C130.7 5.99998 130.5 7.39997 130.5 9.39997V48.4C130.5 50.4 130.7 51.8 131 52.7C131.3 53.6 131.9 54.2 132.8 54.5C133.7 54.8 135 54.9 136.9 54.9H142.6C145.8 54.9 148.3 54.4 150 53.5C151.7 52.6 152.9 51.1 153.7 49.1C154.5 47.1 155.1 44.1 155.4 40.2H157.2C157 41.8 157 44 157 46.6C157 49.6 157.2 52.9 157.6 56.7C154 56.5 148 56.5 139.6 56.5C129.5 56.5 121.9 56.6 116.8 56.7V55.1C118.7 55 120.1 54.8 120.9 54.5C121.8 54.2 122.4 53.6 122.7 52.7C123 51.8 123.2 50.4 123.2 48.4V9.39997C123.2 7.39997 123 5.99998 122.7 5.09998C122.4 4.19998 121.8 3.59998 120.9 3.29998C120 2.99998 118.7 2.79998 116.8 2.69998V1.09998C119 1.29998 122.4 1.29998 126.9 1.29998C131.1 1.29998 134.4 1.19998 136.9 1.09998V2.69998Z" fill="#F1F1F5"/>
</svg>
