<svg width="281" height="58" viewBox="0 0 281 58" fill="none" xmlns="http://www.w3.org/2000/svg">
<path d="M189.3 33.3L192.3 24.5H193.8L196.8 33.3H195.6L194.8 31H191.2L190.5 33.3H189.3ZM191.6 30H194.5L193.1 25.7L191.6 30Z" fill="#F1F1F5"/>
<path d="M208.3 30.7C208.3 31.6 208 32.3 207.4 32.7C206.8 33.1 206 33.3 204.9 33.3H202V24.5H204.6C205.7 24.5 206.5 24.7 206.9 25C207.4 25.3 207.6 25.8 207.6 26.5C207.6 27.1 207.5 27.5 207.2 27.8C206.9 28.1 206.6 28.3 206.2 28.4C206.8 28.5 207.2 28.7 207.6 29C208.1 29.5 208.3 30 208.3 30.7ZM206.5 26.8C206.5 26.4 206.4 26 206.1 25.9C205.8 25.7 205.3 25.6 204.6 25.6H203.2V28.2H204.5C205.2 28.2 205.7 28.1 206 27.9C206.3 27.7 206.5 27.3 206.5 26.8ZM207.1 30.7C207.1 30.3 207 30 206.9 29.8C206.8 29.6 206.5 29.4 206.2 29.3C205.9 29.2 205.4 29.2 204.8 29.2H203.3V32.2H204.5C205.2 32.2 205.8 32.2 206.1 32.1C206.4 32 206.7 31.8 206.8 31.6C207 31.4 207.1 31.1 207.1 30.7Z" fill="#F1F1F5"/>
<path d="M220.6 28.9C220.6 30.5 220.3 31.6 219.7 32.4C219.1 33.2 218.2 33.5 217 33.5C215.8 33.5 214.9 33.1 214.3 32.4C213.7 31.7 213.4 30.5 213.4 28.9C213.4 27.4 213.7 26.2 214.3 25.5C214.9 24.7 215.8 24.4 217 24.4C218.2 24.4 219.1 24.8 219.7 25.5C220.3 26.2 220.6 27.3 220.6 28.9ZM219.4 28.9C219.4 27.7 219.2 26.8 218.9 26.2C218.6 25.6 217.9 25.3 217.1 25.3C216.3 25.3 215.7 25.6 215.3 26.2C214.9 26.8 214.8 27.7 214.8 28.9C214.8 30.1 215 31 215.4 31.6C215.8 32.2 216.4 32.4 217.2 32.4C218 32.4 218.6 32.1 219 31.6C219.2 31 219.4 30.1 219.4 28.9Z" fill="#F1F1F5"/>
<path d="M231.9 26.6C231.7 26.2 231.4 25.9 231.1 25.7C230.8 25.5 230.3 25.4 229.7 25.4C228.8 25.4 228.2 25.7 227.8 26.3C227.4 26.9 227.2 27.8 227.2 29C227.2 30.2 227.4 31.1 227.9 31.7C228.3 32.3 229 32.5 229.9 32.5C230.2 32.5 230.6 32.5 230.8 32.4C231 32.3 231.4 32.2 231.7 32.1V30H229.6V28.9H232.9V32.7C232.4 33 231.9 33.2 231.5 33.3C231.1 33.4 230.5 33.5 229.9 33.5C228.6 33.5 227.6 33.1 227 32.4C226.4 31.7 226 30.5 226 29C226 27.5 226.3 26.3 227 25.5C227.6 24.7 228.6 24.4 229.9 24.4C230.6 24.4 231.2 24.5 231.8 24.8C232.4 25.1 232.8 25.5 233.1 26.1L231.9 26.6Z" fill="#F1F1F5"/>
<path d="M238 33.3L241 24.5H242.5L245.5 33.3H244.3L243.5 31H239.9L239.2 33.3H238ZM240.3 30H243.2L241.8 25.7L240.3 30Z" fill="#F1F1F5"/>
<path d="M257.1 28.9C257.1 30 257 30.8 256.7 31.5C256.4 32.2 256 32.6 255.4 32.9C254.8 33.2 254 33.3 253 33.3H250.8V24.5H253C254 24.5 254.8 24.6 255.4 24.9C256 25.2 256.4 25.7 256.7 26.3C256.9 27 257.1 27.9 257.1 28.9ZM255.8 28.9C255.8 28.1 255.7 27.4 255.5 26.9C255.3 26.4 255 26.1 254.6 25.9C254.2 25.7 253.6 25.6 252.8 25.6H251.8V32.3H252.8C253.6 32.3 254.2 32.2 254.6 32C255 31.8 255.3 31.4 255.5 31C255.7 30.6 255.8 29.8 255.8 28.9Z" fill="#F1F1F5"/>
<path d="M269.5 28.9C269.5 30.5 269.2 31.6 268.6 32.4C268 33.2 267.1 33.5 265.9 33.5C264.7 33.5 263.8 33.1 263.2 32.4C262.6 31.7 262.3 30.5 262.3 28.9C262.3 27.4 262.6 26.2 263.2 25.5C263.8 24.7 264.7 24.4 265.9 24.4C267.1 24.4 268 24.8 268.6 25.5C269.2 26.2 269.5 27.3 269.5 28.9ZM268.2 28.9C268.2 27.7 268 26.8 267.7 26.2C267.4 25.6 266.7 25.3 265.9 25.3C265.1 25.3 264.5 25.6 264.1 26.2C263.7 26.8 263.6 27.7 263.6 28.9C263.6 30.1 263.8 31 264.2 31.6C264.6 32.2 265.2 32.4 266 32.4C266.8 32.4 267.4 32.1 267.8 31.6C268 31 268.2 30.1 268.2 28.9Z" fill="#F1F1F5"/>
<path d="M280.9 30.9C280.9 31.7 280.6 32.4 280.1 32.8C279.6 33.3 278.8 33.5 277.7 33.5C276.9 33.5 276.2 33.4 275.7 33.1C275.2 32.8 274.7 32.4 274.4 31.8L275.4 31.2C275.9 32.1 276.7 32.5 277.7 32.5C278.3 32.5 278.8 32.4 279.2 32.1C279.6 31.8 279.7 31.5 279.7 31C279.7 30.7 279.6 30.5 279.5 30.3C279.4 30.1 279.2 30 279 29.9C278.8 29.8 278.6 29.7 278.4 29.6C278.2 29.5 277.9 29.5 277.6 29.4C277.2 29.3 276.8 29.2 276.4 29.1C276 29 275.7 28.8 275.4 28.7C275.1 28.5 274.9 28.3 274.8 28C274.6 27.7 274.6 27.4 274.6 26.9C274.6 26.1 274.9 25.5 275.4 25C275.9 24.5 276.7 24.3 277.6 24.3C278.4 24.3 279 24.4 279.5 24.7C280 25 280.3 25.4 280.6 25.8L279.7 26.5C279.5 26.1 279.2 25.8 278.9 25.6C278.6 25.4 278.2 25.3 277.6 25.3C277 25.3 276.6 25.4 276.3 25.7C276 26 275.8 26.3 275.8 26.7C275.8 26.9 275.8 27.1 275.9 27.3C276 27.5 276.1 27.6 276.3 27.7C276.5 27.8 276.7 27.9 277 28C277.3 28.1 277.6 28.2 277.9 28.2C278.3 28.3 278.7 28.4 279 28.5C279.4 28.6 279.7 28.8 279.9 29C280.1 29.2 280.4 29.4 280.5 29.7C280.9 30.1 280.9 30.4 280.9 30.9Z" fill="#F1F1F5"/>
<path d="M173.8 1H172.3V56.9H173.8V1Z" fill="#F1F1F5"/>
<path d="M57.8 3.29998C56.9 3.59998 56.3 4.19998 56 5.09998C55.7 5.99998 55.5 7.39998 55.5 9.39998V48.4C55.5 50.4 55.7 51.8 56 52.7C56.3 53.6 56.9 54.2 57.8 54.5C58.7 54.8 60 55 61.9 55.1V56.7C59.5 56.5 56.2 56.5 51.9 56.5C47.4 56.5 44 56.6 41.8 56.7V55.1C43.7 55 45.1 54.8 45.9 54.5C46.8 54.2 47.4 53.6 47.7 52.7C48 51.8 48.2 50.4 48.2 48.4V6.29998L29.2 57.2H28L8.2 6.09998V47.6C8.2 49.6 8.4 51.2 8.7 52.2C9 53.2 9.7 53.9 10.7 54.4C11.7 54.8 13.2 55.1 15.3 55.2V56.8C13.4 56.6 10.7 56.6 7.3 56.6C4.2 56.6 1.7 56.7 0 56.8V55.2C1.8 55.1 3.2 54.8 4.1 54.4C5 54 5.6 53.2 5.9 52.2C6.2 51.2 6.4 49.7 6.4 47.7V9.39998C6.4 7.39998 6.2 5.99998 5.9 5.09998C5.6 4.19998 5 3.59998 4.1 3.29998C3.3 2.99998 1.9 2.79997 0 2.69997V1.09998C1.7 1.29998 4.2 1.29998 7.3 1.29998C10 1.29998 12.3 1.19998 14 1.09998L31.3 46.6L48.2 1.29998H51.9C56.1 1.29998 59.5 1.19998 61.9 1.09998V2.69997C60 2.79997 58.6 2.99998 57.8 3.29998Z" fill="#F1F1F5"/>
<path d="M98.6 1.3C100.6 2.2 102.8 3.4 105.1 5.1C105.8 5.6 106.3 5.9 106.7 5.9C107.7 5.9 108.4 4.3 108.7 1.1H110.5C110.3 4.5 110.2 10.5 110.2 19.2H108.4C107.9 16.4 107.4 14.1 106.9 12.3C106.4 10.5 105.6 8.9 104.5 7.5C103 5.6 101 4.1 98.6 3C96.2 1.9 93.6 1.3 90.9 1.3C87.4 1.3 84.4 2.4 81.8 4.7C79.2 7 77.2 10.2 75.7 14.3C74.3 18.5 73.6 23.3 73.6 28.9C73.6 38.3 75.1 45.2 78.1 49.6C81.1 54 85.8 56.2 92.3 56.2C95.4 56.2 98.2 55.4 100.5 53.8C101.4 53.2 102.1 52.6 102.3 52C102.6 51.4 102.7 50.6 102.7 49.5V42C102.7 39.8 102.5 38.2 102.1 37.2C101.7 36.2 100.9 35.5 99.9 35.2C98.9 34.8 97.1 34.6 94.8 34.5V32.9C97.5 33.1 101.2 33.1 105.9 33.1C109.5 33.1 112.2 33 114.1 32.9V34.5C112.9 34.6 112 34.8 111.5 35.1C110.9 35.4 110.6 36 110.4 36.9C110.2 37.8 110.1 39.2 110.1 41.2V56.8H108.5C108.4 55.8 108.2 54.7 107.9 53.8C107.5 52.8 107 52.3 106.4 52.3C106.1 52.3 105.8 52.4 105.5 52.5C105.2 52.6 104.6 53 103.8 53.6C102 55 100.1 56.1 98.1 56.8C96.1 57.5 93.9 57.9 91.5 57.9C86.1 57.9 81.5 56.8 77.6 54.6C73.7 52.4 70.8 49.2 68.8 45C66.8 40.8 65.7 35.8 65.7 30C65.7 24 66.8 18.8 69 14.2C71.2 9.7 74.2 6.2 78 3.7C81.7 1.2 86.1 0 91 0C94.1 0 96.6 0.400003 98.6 1.3Z" fill="#F1F1F5"/>
<path d="M136.9 2.69997C135 2.79997 133.6 2.99998 132.8 3.29998C131.9 3.59998 131.3 4.19998 131 5.09998C130.7 5.99998 130.5 7.39998 130.5 9.39998V48.4C130.5 50.4 130.7 51.8 131 52.7C131.3 53.6 131.9 54.2 132.8 54.5C133.7 54.8 135 54.9 136.9 54.9H142.6C145.8 54.9 148.3 54.4 150 53.5C151.7 52.6 152.9 51.1 153.7 49.1C154.5 47.1 155.1 44.1 155.4 40.2H157.2C157 41.8 157 44 157 46.6C157 49.6 157.2 52.9 157.6 56.7C154 56.5 148 56.5 139.6 56.5C129.5 56.5 121.9 56.6 116.8 56.7V55.1C118.7 55 120.1 54.8 120.9 54.5C121.8 54.2 122.4 53.6 122.7 52.7C123 51.8 123.2 50.4 123.2 48.4V9.39998C123.2 7.39998 123 5.99998 122.7 5.09998C122.4 4.19998 121.8 3.59998 120.9 3.29998C120 2.99998 118.7 2.79997 116.8 2.69997V1.09998C119 1.29998 122.4 1.29998 126.9 1.29998C131.1 1.29998 134.4 1.19998 136.9 1.09998V2.69997Z" fill="#F1F1F5"/>
</svg>
